<svg width="249" height="185" viewBox="0 0 249 185" fill="none" xmlns="http://www.w3.org/2000/svg">
<rect width="249" height="185" fill="#1E1E1E"/>
<rect width="249" height="185" fill="black"/>
<path d="M77.728 91L72.8 82.296H70.688V91H66.208V68.664H74.592C76.32 68.664 77.792 68.9733 79.008 69.592C80.224 70.1893 81.1307 71.0107 81.728 72.056C82.3467 73.08 82.656 74.232 82.656 75.512C82.656 76.984 82.2293 78.3173 81.376 79.512C80.5227 80.6853 79.2533 81.496 77.568 81.944L82.912 91H77.728ZM70.688 78.936H74.432C75.648 78.936 76.5547 78.648 77.152 78.072C77.7493 77.4747 78.048 76.6533 78.048 75.608C78.048 74.584 77.7493 73.7947 77.152 73.24C76.5547 72.664 75.648 72.376 74.432 72.376H70.688V78.936ZM103.188 81.752C103.188 82.392 103.145 82.968 103.06 83.48H90.1C90.2067 84.76 90.6547 85.7627 91.444 86.488C92.2333 87.2133 93.204 87.576 94.356 87.576C96.02 87.576 97.204 86.8613 97.908 85.432H102.74C102.228 87.1387 101.247 88.5467 99.796 89.656C98.3453 90.744 96.564 91.288 94.452 91.288C92.7453 91.288 91.2093 90.9147 89.844 90.168C88.5 89.4 87.444 88.3227 86.676 86.936C85.9293 85.5493 85.556 83.9493 85.556 82.136C85.556 80.3013 85.9293 78.6907 86.676 77.304C87.4227 75.9173 88.468 74.8507 89.812 74.104C91.156 73.3573 92.7027 72.984 94.452 72.984C96.1373 72.984 97.6413 73.3467 98.964 74.072C100.308 74.7973 101.343 75.832 102.068 77.176C102.815 78.4987 103.188 80.024 103.188 81.752ZM98.548 80.472C98.5267 79.32 98.1107 78.4027 97.3 77.72C96.4893 77.016 95.4973 76.664 94.324 76.664C93.2147 76.664 92.276 77.0053 91.508 77.688C90.7613 78.3493 90.3027 79.2773 90.132 80.472H98.548ZM116.282 73.016C118.394 73.016 120.101 73.688 121.402 75.032C122.703 76.3547 123.354 78.2107 123.354 80.6V91H118.874V81.208C118.874 79.8 118.522 78.7227 117.818 77.976C117.114 77.208 116.154 76.824 114.938 76.824C113.701 76.824 112.719 77.208 111.994 77.976C111.29 78.7227 110.938 79.8 110.938 81.208V91H106.458V73.272H110.938V75.48C111.535 74.712 112.293 74.1147 113.21 73.688C114.149 73.24 115.173 73.016 116.282 73.016ZM126.462 82.072C126.462 80.28 126.814 78.6907 127.518 77.304C128.244 75.9173 129.214 74.8507 130.43 74.104C131.668 73.3573 133.044 72.984 134.558 72.984C135.881 72.984 137.033 73.2507 138.014 73.784C139.017 74.3173 139.817 74.9893 140.414 75.8V73.272H144.926V91H140.414V88.408C139.838 89.24 139.038 89.9333 138.014 90.488C137.012 91.0213 135.849 91.288 134.526 91.288C133.033 91.288 131.668 90.904 130.43 90.136C129.214 89.368 128.244 88.2907 127.518 86.904C126.814 85.496 126.462 83.8853 126.462 82.072ZM140.414 82.136C140.414 81.048 140.201 80.12 139.774 79.352C139.348 78.5627 138.772 77.9653 138.046 77.56C137.321 77.1333 136.542 76.92 135.71 76.92C134.878 76.92 134.11 77.1227 133.406 77.528C132.702 77.9333 132.126 78.5307 131.678 79.32C131.252 80.088 131.038 81.0053 131.038 82.072C131.038 83.1387 131.252 84.0773 131.678 84.888C132.126 85.6773 132.702 86.2853 133.406 86.712C134.132 87.1387 134.9 87.352 135.71 87.352C136.542 87.352 137.321 87.1493 138.046 86.744C138.772 86.3173 139.348 85.72 139.774 84.952C140.201 84.1627 140.414 83.224 140.414 82.136ZM166.038 73.272V91H161.526V88.76C160.95 89.528 160.192 90.136 159.254 90.584C158.336 91.0107 157.334 91.224 156.246 91.224C154.859 91.224 153.632 90.936 152.566 90.36C151.499 89.7627 150.656 88.8987 150.038 87.768C149.44 86.616 149.142 85.2507 149.142 83.672V73.272H153.622V83.032C153.622 84.44 153.974 85.528 154.678 86.296C155.382 87.0427 156.342 87.416 157.558 87.416C158.795 87.416 159.766 87.0427 160.47 86.296C161.174 85.528 161.526 84.44 161.526 83.032V73.272H166.038ZM174.938 67.32V91H170.458V67.32H174.938ZM184.58 76.952V85.528C184.58 86.1253 184.719 86.5627 184.996 86.84C185.295 87.096 185.786 87.224 186.468 87.224H188.548V91H185.732C181.956 91 180.068 89.1653 180.068 85.496V76.952H177.956V73.272H180.068V68.888H184.58V73.272H188.548V76.952H184.58ZM81.76 101.384C81.248 100.445 80.544 99.7307 79.648 99.24C78.752 98.7493 77.7067 98.504 76.512 98.504C75.1893 98.504 74.016 98.8027 72.992 99.4C71.968 99.9973 71.168 100.851 70.592 101.96C70.016 103.069 69.728 104.349 69.728 105.8C69.728 107.293 70.016 108.595 70.592 109.704C71.1893 110.813 72.0107 111.667 73.056 112.264C74.1013 112.861 75.3173 113.16 76.704 113.16C78.4107 113.16 79.808 112.712 80.896 111.816C81.984 110.899 82.6987 109.629 83.04 108.008H75.36V104.584H87.456V108.488C87.1573 110.045 86.5173 111.485 85.536 112.808C84.5547 114.131 83.2853 115.197 81.728 116.008C80.192 116.797 78.464 117.192 76.544 117.192C74.3893 117.192 72.4373 116.712 70.688 115.752C68.96 114.771 67.5947 113.416 66.592 111.688C65.6107 109.96 65.12 107.997 65.12 105.8C65.12 103.603 65.6107 101.64 66.592 99.912C67.5947 98.1627 68.96 96.808 70.688 95.848C72.4373 94.8667 74.3787 94.376 76.512 94.376C79.0293 94.376 81.216 94.9947 83.072 96.232C84.928 97.448 86.208 99.1653 86.912 101.384H81.76ZM95.2505 102.024C95.8265 101.085 96.5732 100.349 97.4905 99.816C98.4292 99.2827 99.4958 99.016 100.691 99.016V103.72H99.5065C98.0985 103.72 97.0318 104.051 96.3065 104.712C95.6025 105.373 95.2505 106.525 95.2505 108.168V117H90.7705V99.272H95.2505V102.024ZM111.58 117.288C109.873 117.288 108.337 116.915 106.972 116.168C105.607 115.4 104.529 114.323 103.74 112.936C102.972 111.549 102.588 109.949 102.588 108.136C102.588 106.323 102.983 104.723 103.772 103.336C104.583 101.949 105.681 100.883 107.068 100.136C108.455 99.368 110.001 98.984 111.708 98.984C113.415 98.984 114.961 99.368 116.348 100.136C117.735 100.883 118.823 101.949 119.612 103.336C120.423 104.723 120.828 106.323 120.828 108.136C120.828 109.949 120.412 111.549 119.58 112.936C118.769 114.323 117.66 115.4 116.252 116.168C114.865 116.915 113.308 117.288 111.58 117.288ZM111.58 113.384C112.391 113.384 113.148 113.192 113.852 112.808C114.577 112.403 115.153 111.805 115.58 111.016C116.007 110.227 116.22 109.267 116.22 108.136C116.22 106.451 115.772 105.16 114.876 104.264C114.001 103.347 112.924 102.888 111.644 102.888C110.364 102.888 109.287 103.347 108.412 104.264C107.559 105.16 107.132 106.451 107.132 108.136C107.132 109.821 107.548 111.123 108.38 112.04C109.233 112.936 110.3 113.384 111.58 113.384ZM140.85 99.272V117H136.338V114.76C135.762 115.528 135.005 116.136 134.066 116.584C133.149 117.011 132.146 117.224 131.058 117.224C129.672 117.224 128.445 116.936 127.378 116.36C126.312 115.763 125.469 114.899 124.85 113.768C124.253 112.616 123.954 111.251 123.954 109.672V99.272H128.434V109.032C128.434 110.44 128.786 111.528 129.49 112.296C130.194 113.043 131.154 113.416 132.37 113.416C133.608 113.416 134.578 113.043 135.282 112.296C135.986 111.528 136.338 110.44 136.338 109.032V99.272H140.85ZM149.751 101.832C150.327 101.021 151.116 100.349 152.119 99.816C153.143 99.2613 154.305 98.984 155.607 98.984C157.121 98.984 158.487 99.3573 159.703 100.104C160.94 100.851 161.911 101.917 162.615 103.304C163.34 104.669 163.703 106.259 163.703 108.072C163.703 109.885 163.34 111.496 162.615 112.904C161.911 114.291 160.94 115.368 159.703 116.136C158.487 116.904 157.121 117.288 155.607 117.288C154.305 117.288 153.153 117.021 152.151 116.488C151.169 115.955 150.369 115.283 149.751 114.472V125.448H145.271V99.272H149.751V101.832ZM159.127 108.072C159.127 107.005 158.903 106.088 158.455 105.32C158.028 104.531 157.452 103.933 156.727 103.528C156.023 103.123 155.255 102.92 154.423 102.92C153.612 102.92 152.844 103.133 152.119 103.56C151.415 103.965 150.839 104.563 150.391 105.352C149.964 106.141 149.751 107.069 149.751 108.136C149.751 109.203 149.964 110.131 150.391 110.92C150.839 111.709 151.415 112.317 152.119 112.744C152.844 113.149 153.612 113.352 154.423 113.352C155.255 113.352 156.023 113.139 156.727 112.712C157.452 112.285 158.028 111.677 158.455 110.888C158.903 110.099 159.127 109.16 159.127 108.072Z" fill="white"/>
</svg>
